<svg width="80" height="37" viewBox="0 0 80 37" fill="none" xmlns="http://www.w3.org/2000/svg">
<path d="M78.6328 5.77787C77.8191 5.59892 77.3233 5.91366 77.1423 6.72524C75.877 13.14 73.3265 18.4916 69.4897 22.7779C65.6497 27.0684 61.2476 30.0473 56.2823 31.7189C51.3149 33.3905 46.0318 34.001 40.4339 33.5463C32.4854 32.8242 25.4191 30.0473 19.2328 25.2158C13.0454 20.3842 9.1865 14.0873 7.65071 6.32208C11.0823 10.1137 14.6033 13.0473 18.217 15.1252C18.9402 15.5779 19.5254 15.4421 19.9791 14.7179C20.4297 13.9958 20.2939 13.4105 19.5728 12.9558C14.6033 10.16 10.177 6.13787 6.29597 0.899976C5.84229 0.178923 5.30124 0.0883965 4.67071 0.630502C4.40018 0.811554 4.21808 1.03787 4.1286 1.30734C3.85808 1.57892 3.72229 1.89682 3.72229 2.25682C3.72229 2.98103 3.69913 3.69997 3.65492 4.42208C3.6086 5.14734 3.49597 5.89155 3.31702 6.65892C3.13492 7.42629 2.99913 8.10208 2.90966 8.6905C2.81808 9.27892 2.63913 10.0252 2.36755 10.9252C2.09808 11.8273 1.91597 12.4831 1.8265 12.8884C1.73492 13.2958 1.5086 14.0873 1.1486 15.2589L0.471762 17.2926C0.201235 18.1042 0.471762 18.6473 1.28439 18.9168C2.09703 19.1884 2.63913 18.9168 2.90966 18.1052C4.35387 13.2284 5.21281 10.0252 5.48334 8.48734C7.4686 16.4358 11.7139 22.8463 18.217 27.7221C24.7202 32.5989 32.0349 35.3537 40.1623 35.9852C46.1233 36.5284 51.7644 35.8968 57.0939 34.0895C62.4212 32.2821 67.1623 29.0768 71.317 24.4716C75.4697 19.8663 78.2254 14.1305 79.5802 7.26734C79.7612 6.45682 79.4454 5.96103 78.6328 5.77787Z" fill="black"/>
</svg>
