<svg height='100px' width='100px'  fill="#000000" xmlns="http://www.w3.org/2000/svg" xmlns:xlink="http://www.w3.org/1999/xlink" version="1.1" x="0px" y="0px" viewBox="0 0 70 70" style="enable-background:new 0 0 70 70;" xml:space="preserve"><g><g><path d="M24.8164062,17.5009766C13.7553711,17.5009766,2,14.7851562,2,9.7509766S13.7553711,2,24.8164062,2    c11.0605469,0,22.815918,2.7167969,22.815918,7.7509766S35.8769531,17.5009766,24.8164062,17.5009766z M24.8164062,4    C11.9194336,4,4,7.3496094,4,9.7509766s7.9194336,5.75,20.8164062,5.75s20.815918-3.3486328,20.815918-5.75    S37.7133789,4,24.8164062,4z"></path></g><g><path d="M45.4306641,29.7900391c-0.2763672,0-0.5517578-0.1142578-0.7490234-0.3369141    c-0.3662109-0.4140625-0.3276367-1.0458984,0.0854492-1.4121094c0.5727539-0.5068359,0.862793-0.9980469,0.862793-1.4609375    c0-0.5527344,0.4477539-1,1-1s1,0.4472656,1,1c0,1.0605469-0.5170898,2.0556641-1.5366211,2.9589844    C45.902832,29.7070312,45.6660156,29.7900391,45.4306641,29.7900391z"></path></g><g><path d="M24.8198242,34.3300781c-11.0625,0-22.8198242-2.7158203-22.8198242-7.75c0-0.5527344,0.4477539-1,1-1s1,0.4472656,1,1    c0,2.4013672,7.9204102,5.75,20.8198242,5.75c8.8520508,0,16.809082-1.6708984,19.8007812-4.1582031    c0.4228516-0.3535156,1.0541992-0.2958984,1.4082031,0.1289062c0.3530273,0.4248047,0.2949219,1.0556641-0.1298828,1.4082031    C42.5234375,32.5166016,34.2495117,34.3300781,24.8198242,34.3300781z"></path></g><g><path d="M24.8198242,51.1699219c-11.0625,0-22.8198242-2.7158203-22.8198242-7.75c0-0.5527344,0.4477539-1,1-1s1,0.4472656,1,1    c0,2.4013672,7.9204102,5.75,20.8198242,5.75c1.3393555,0,2.6542969-0.0400391,3.9077148-0.1181641    c0.5556641-0.03125,1.0258789,0.3837891,1.0605469,0.9355469s-0.3842773,1.0263672-0.9355469,1.0605469    C27.5576172,51.1289062,26.2006836,51.1699219,24.8198242,51.1699219z"></path></g><g><path d="M46.6298828,29.7900391c-0.5522461,0-1-0.4472656-1-1V9.75c0-0.5527344,0.4477539-1,1-1s1,0.4472656,1,1v19.0400391    C47.6298828,29.3427734,47.1821289,29.7900391,46.6298828,29.7900391z"></path></g><g><path d="M24.8198242,68c-5.9472656,0-11.5327148-0.71875-15.7270508-2.0244141C4.4536133,64.5419922,2,62.5615234,2,60.25V9.75    c0-0.5527344,0.4477539-1,1-1s1,0.4472656,1,1v50.5c0,0.9951172,1.4936523,2.5195312,5.6855469,3.8154297    C13.6943359,65.3134766,19.0683594,66,24.8198242,66c8.6171875,0,16.5058594-1.6162109,19.6303711-4.0214844    c0.4355469-0.3388672,1.0639648-0.2568359,1.4023438,0.1816406c0.3369141,0.4375,0.2553711,1.0654297-0.1826172,1.4023438    C42.1694336,66.2587891,33.9853516,68,24.8198242,68z"></path></g><g><path d="M50.5195312,68h-5.25c-0.5327148,0-0.9716797-0.4179688-0.9985352-0.9492188l-0.262207-5.1923828    c-1.1279297-0.3144531-2.2124023-0.7646484-3.237793-1.3457031l-3.859375,3.4902344    c-0.3950195,0.3554688-1.0009766,0.3408203-1.3779297-0.0351562l-3.7124023-3.7128906    c-0.3769531-0.3769531-0.3920898-0.9824219-0.034668-1.3779297l3.4892578-3.859375    c-0.581543-1.0253906-1.0322266-2.109375-1.3457031-3.2373047l-5.1918945-0.2617188    c-0.5322266-0.0273438-0.949707-0.4658203-0.949707-0.9990234v-5.25c0-0.5332031,0.4174805-0.9716797,0.949707-0.9990234    l5.1918945-0.2617188c0.3134766-1.1279297,0.7641602-2.2119141,1.3457031-3.2382812l-3.4892578-3.8583984    c-0.3574219-0.3955078-0.3422852-1.0009766,0.034668-1.3779297l3.7124023-3.7128906    c0.3769531-0.3759766,0.9824219-0.3916016,1.3774414-0.0351562l3.8598633,3.4892578    c1.0268555-0.5810547,2.1108398-1.0322266,3.237793-1.3457031l0.262207-5.1914062    c0.0268555-0.53125,0.4658203-0.9492188,0.9985352-0.9492188h5.25c0.5327148,0,0.972168,0.4179688,0.9985352,0.9492188    l0.2617188,5.1923828c1.1269531,0.3125,2.2114258,0.7636719,3.237793,1.3447266l3.8598633-3.4892578    c0.3945312-0.3564453,1.0004883-0.3427734,1.3774414,0.0351562l3.7124023,3.7128906    c0.3769531,0.3769531,0.3920898,0.9824219,0.034668,1.3779297l-3.4892578,3.8583984    c0.581543,1.0263672,1.0322266,2.1103516,1.3457031,3.2382812l5.1918945,0.2617188    C67.5825195,44.2978516,68,44.7363281,68,45.2695312v5.25c0,0.5332031-0.4174805,0.9716797-0.949707,0.9990234    l-5.1918945,0.2617188c-0.3134766,1.1279297-0.7641602,2.2119141-1.3457031,3.2373047l3.4892578,3.859375    c0.3574219,0.3955078,0.3422852,1.0009766-0.034668,1.3779297l-3.7124023,3.7128906    c-0.3769531,0.3759766-0.9829102,0.390625-1.3779297,0.0351562l-3.859375-3.4902344    c-1.0253906,0.5810547-2.109375,1.03125-3.237793,1.3457031l-0.2617188,5.1923828    C51.4916992,67.5820312,51.0522461,68,50.5195312,68z M46.2202148,66h3.3486328l0.2509766-4.9833984    c0.0224609-0.4492188,0.3427734-0.828125,0.7827148-0.9257812c1.4165039-0.3125,2.7612305-0.8720703,3.9975586-1.6601562    c0.3793945-0.2431641,0.8745117-0.2001953,1.2089844,0.1005859l3.7041016,3.3496094l2.3676758-2.3681641l-3.3491211-3.7041016    c-0.3022461-0.3339844-0.34375-0.8291016-0.1010742-1.2089844c0.7890625-1.2353516,1.3476562-2.5800781,1.6606445-3.9970703    c0.097168-0.4394531,0.4765625-0.7607422,0.9262695-0.7832031L66,49.5683594v-3.3476562l-4.9824219-0.2509766    c-0.449707-0.0224609-0.8291016-0.34375-0.9262695-0.7832031c-0.3129883-1.4160156-0.871582-2.7617188-1.6611328-3.9980469    c-0.2421875-0.3798828-0.2006836-0.875,0.1015625-1.2089844l3.3491211-3.7041016l-2.3676758-2.3671875l-3.7045898,3.3486328    c-0.3334961,0.3007812-0.828125,0.3417969-1.2080078,0.1015625c-1.2387695-0.7900391-2.5839844-1.3486328-3.9980469-1.6611328    c-0.4399414-0.0976562-0.7602539-0.4765625-0.7827148-0.9257812l-0.2509766-4.9824219h-3.3486328L45.96875,34.7714844    c-0.0224609,0.4492188-0.3427734,0.828125-0.7827148,0.9257812c-1.4140625,0.3125-2.7592773,0.8710938-3.9980469,1.6611328    c-0.3793945,0.2402344-0.8745117,0.1992188-1.2080078-0.1015625l-3.7045898-3.3486328l-2.3676758,2.3671875l3.3491211,3.7041016    c0.3022461,0.3339844,0.34375,0.8291016,0.1015625,1.2089844c-0.7895508,1.2363281-1.3481445,2.5820312-1.6611328,3.9980469    c-0.097168,0.4394531-0.4765625,0.7607422-0.9262695,0.7832031l-4.9824219,0.2509766v3.3476562l4.9824219,0.2509766    c0.449707,0.0224609,0.8291016,0.34375,0.9262695,0.7832031c0.3129883,1.4169922,0.871582,2.7617188,1.6606445,3.9970703    c0.2426758,0.3798828,0.2011719,0.875-0.1010742,1.2089844l-3.3491211,3.7041016l2.3676758,2.3681641l3.7041016-3.3496094    c0.3349609-0.3007812,0.8305664-0.3427734,1.2089844-0.1005859c1.2363281,0.7880859,2.5810547,1.3476562,3.9975586,1.6601562    c0.4399414,0.0976562,0.7602539,0.4765625,0.7827148,0.9257812L46.2202148,66z M67,50.5195312h0.0097656H67z"></path></g><g><path d="M47.8945312,55.3945312c-4.1357422,0-7.5-3.3642578-7.5-7.5s3.3642578-7.5,7.5-7.5s7.5,3.3642578,7.5,7.5    S52.0302734,55.3945312,47.8945312,55.3945312z M47.8945312,42.3945312c-3.0327148,0-5.5,2.4677734-5.5,5.5s2.4672852,5.5,5.5,5.5    s5.5-2.4677734,5.5-5.5S50.9272461,42.3945312,47.8945312,42.3945312z"></path></g></g></svg>