<svg height='100px' width='100px'  fill="#000000" xmlns="http://www.w3.org/2000/svg" xmlns:xlink="http://www.w3.org/1999/xlink" version="1.1" x="0px" y="0px" viewBox="0 0 140 140" enable-background="new 0 0 140 140" xml:space="preserve"><path d="M129.5498047,10.3603516H10.449707C7.4448242,10.3603516,5,13.0224609,5,16.2949219v85.9262695  c0,3.2719727,2.4448242,5.934082,5.449707,5.934082h44.2597656l-0.0043945,8.5546875l-11.3286133,11.2192383  c-0.2880859,0.2851563-0.3754883,0.7158203-0.2211914,1.0908203s0.5195313,0.6196289,0.9248047,0.6196289H95.5  c0.4042969,0,0.769043-0.2436523,0.9238281-0.6171875c0.1547852-0.3740234,0.0693359-0.8041992-0.2167969-1.0898438  l-11.3154297-11.3134766l-0.010498-8.4638672h44.6687012c3.0053711,0,5.4501953-2.6621094,5.4501953-5.934082V16.2949219  C135,13.0224609,132.5551758,10.3603516,129.5498047,10.3603516z M93.0854492,127.6396484H46.5112305l9.8974609-9.8017578  c0.1894531-0.1875,0.2963867-0.4433594,0.2963867-0.7099609l0.0043945-8.9682617h26.171875l0.0107422,8.8754883  c0.0004883,0.2646484,0.1054688,0.5185547,0.2929688,0.7055664L93.0854492,127.6396484z M10.449707,12.3603516h119.1000977  c1.9023438,0,3.4501953,1.7651367,3.4501953,3.9345703V87.809082H7V16.2949219  C7,14.1254883,8.5473633,12.3603516,10.449707,12.3603516z M129.5498047,106.1552734H10.449707  C8.5473633,106.1552734,7,104.390625,7,102.2211914V89.809082h126v12.4121094  C133,104.390625,131.4521484,106.1552734,129.5498047,106.1552734z"></path><path d="M13.1699219,82.3325195h113.6601563c0.5522461,0,1-0.4477539,1-1V18.3227539c0-0.5522461-0.4477539-1-1-1H13.1699219  c-0.5522461,0-1,0.4477539-1,1v63.0097656C12.1699219,81.8847656,12.6176758,82.3325195,13.1699219,82.3325195z   M14.1699219,19.3227539h111.6601563v61.0097656H14.1699219V19.3227539z"></path><path d="M69.9995117,93.7646484c-2.5053711,0-4.5439453,2.0385742-4.5439453,4.5439453  c0,2.5014648,2.0385742,4.5361328,4.5439453,4.5361328c2.5058594,0,4.5444336-2.034668,4.5444336-4.5361328  C74.5439453,95.8032227,72.5053711,93.7646484,69.9995117,93.7646484z M69.9995117,100.8447266  c-1.402832,0-2.5439453-1.1376953-2.5439453-2.5361328c0-1.402832,1.1411133-2.5439453,2.5439453-2.5439453  s2.5444336,1.1411133,2.5444336,2.5439453C72.5439453,99.7070313,71.4023438,100.8447266,69.9995117,100.8447266z"></path></svg>