<svg class="fill-current" height='100px' width='100px'  fill="currentColor" xmlns="http://www.w3.org/2000/svg" xmlns:xlink="http://www.w3.org/1999/xlink" version="1.1" x="0px" y="0px" viewBox="0 0 140 140" enable-background="new 0 0 140 140" xml:space="preserve"><path d="M100.1582031,135c8.765625,0,15.8969727-7.1313477,15.8969727-15.8969727V20.8969727  C116.0551758,12.1313477,108.9238281,5,100.1582031,5H39.8417969c-8.765625,0-15.8969727,7.1313477-15.8969727,15.8969727  v98.2060547C23.9448242,127.8686523,31.0761719,135,39.8417969,135H100.1582031z M25.9448242,119.1030273V20.8969727  C25.9448242,13.234375,32.1791992,7,39.8417969,7h60.3164063c7.6625977,0,13.8969727,6.234375,13.8969727,13.8969727v98.2060547  c0,7.6625977-6.234375,13.8969727-13.8969727,13.8969727H39.8417969C32.1791992,133,25.9448242,126.765625,25.9448242,119.1030273z"></path><path d="M107.6206055,117.4125977V19.1967773c0-0.5522461-0.4477539-1-1-1H32.8837891c-0.5522461,0-1,0.4477539-1,1v98.2158203  c0,0.5522461,0.4477539,1,1,1h73.7368164C107.1728516,118.4125977,107.6206055,117.9648438,107.6206055,117.4125977z   M105.6206055,116.4125977H33.8837891V20.1967773h71.7368164V116.4125977z"></path><path d="M69.7382813,16.6264648c2.159668,0,3.9169922-1.7573242,3.9169922-3.9174805  c0-2.144043-1.7573242-3.8886719-3.9169922-3.8886719c-2.1445313,0-3.8891602,1.7446289-3.8891602,3.8886719  C65.8491211,14.8691406,67.59375,16.6264648,69.7382813,16.6264648z M69.7382813,10.8203125  c1.074707,0,1.9169922,0.8295898,1.9169922,1.8886719c0,1.0571289-0.8598633,1.9174805-1.9169922,1.9174805  c-1.0415039,0-1.8891602-0.8603516-1.8891602-1.9174805C67.8491211,11.6674805,68.6967773,10.8203125,69.7382813,10.8203125z"></path><path d="M69.7524414,120.1420898c-3.1904297,0-5.7856445,2.5952148-5.7856445,5.7851563  c0,3.1782227,2.5952148,5.7636719,5.7856445,5.7636719c3.1899414,0,5.7851563-2.5854492,5.7851563-5.7636719  C75.5375977,122.7373047,72.9423828,120.1420898,69.7524414,120.1420898z M69.7524414,129.690918  c-2.0874023,0-3.7856445-1.6884766-3.7856445-3.7636719c0-2.0869141,1.6982422-3.7851563,3.7856445-3.7851563  c2.0869141,0,3.7851563,1.6982422,3.7851563,3.7851563C73.5375977,128.0024414,71.8393555,129.690918,69.7524414,129.690918z"></path><path d="M44.0800781,40.0703125c0.2558594,0,0.5117188-0.0976563,0.7070313-0.2929688l9.375-9.375  c0.390625-0.390625,0.390625-1.0234375,0-1.4140625s-1.0234375-0.390625-1.4140625,0l-9.375,9.375  c-0.390625,0.390625-0.390625,1.0234375,0,1.4140625C43.5683594,39.9726563,43.8242188,40.0703125,44.0800781,40.0703125z"></path><path d="M44.9980469,47.7382813c-0.390625,0.390625-0.390625,1.0234375,0,1.4140625  c0.1953125,0.1953125,0.4511719,0.2929688,0.7070313,0.2929688s0.5117188-0.0976563,0.7070313-0.2929688l9.375-9.375  c0.390625-0.390625,0.390625-1.0234375,0-1.4140625s-1.0234375-0.390625-1.4140625,0L44.9980469,47.7382813z"></path></svg>