<svg height='100px' width='100px'  fill="#000000" xmlns="http://www.w3.org/2000/svg" xmlns:xlink="http://www.w3.org/1999/xlink" version="1.1" x="0px" y="0px" viewBox="0 0 70 70" style="enable-background:new 0 0 70 70;" xml:space="preserve"><g><g><path d="M33.3813477,27.9267578H6.59375C4.0605469,27.9267578,2,25.9775391,2,23.5810547V6.3457031    C2,3.9492188,4.0605469,2,6.59375,2h26.7875977c2.5332031,0,4.59375,1.9492188,4.59375,4.3457031v17.2353516    C37.9750977,25.9775391,35.9145508,27.9267578,33.3813477,27.9267578z M6.59375,4C5.1635742,4,4,5.0527344,4,6.3457031v17.2353516    c0,1.2929688,1.1635742,2.3457031,2.59375,2.3457031h26.7875977c1.4301758,0,2.59375-1.0527344,2.59375-2.3457031V6.3457031    C35.9750977,5.0527344,34.8115234,4,33.3813477,4H6.59375z"></path></g><g><g><path d="M12.0380859,13.8496094H9.4248047c-0.5522461,0-1-0.4472656-1-1s0.4477539-1,1-1h2.6132812c0.5522461,0,1,0.4472656,1,1     S12.590332,13.8496094,12.0380859,13.8496094z"></path></g><g><path d="M30.550293,13.8496094h-2.6132812c-0.5522461,0-1-0.4472656-1-1s0.4477539-1,1-1h2.6132812c0.5522461,0,1,0.4472656,1,1     S31.1025391,13.8496094,30.550293,13.8496094z"></path></g></g><g><g><path d="M36.9750977,23.2705078H3c-0.5522461,0-1-0.4472656-1-1s0.4477539-1,1-1h33.9750977c0.5522461,0,1,0.4472656,1,1     S37.5273438,23.2705078,36.9750977,23.2705078z"></path></g></g><g><g><path d="M55,40.8916016c-1.3305664,0-13-0.1054688-13-3.7695312c0-3.6630859,11.6694336-3.7685547,13-3.7685547     s13,0.1054688,13,3.7685547C68,40.7861328,56.3305664,40.8916016,55,40.8916016z M44.0893555,37.1220703     C44.8955078,37.8183594,48.8354492,38.8916016,55,38.8916016s10.1044922-1.0732422,10.9106445-1.7695312     C65.1044922,36.4267578,61.1645508,35.3535156,55,35.3535156S44.8955078,36.4267578,44.0893555,37.1220703z      M66.0283203,37.2529297h0.0102539H66.0283203z"></path></g><g><path d="M55,49.9277344c-1.3305664,0-13-0.1054688-13-3.7695312c0-0.5527344,0.4477539-1,1-1     c0.5195312,0,0.9467773,0.3964844,0.9956055,0.9033203c0.5292969,0.6875,4.5463867,1.8662109,11.0043945,1.8662109     s10.4750977-1.1787109,11.0043945-1.8662109C66.0532227,45.5546875,66.4804688,45.1582031,67,45.1582031     c0.5522461,0,1,0.4472656,1,1C68,49.8222656,56.3305664,49.9277344,55,49.9277344z M44,46.1582031h0.0097656H44z"></path></g><g><path d="M55,58.9638672c-1.3305664,0-13-0.1054688-13-3.7685547c0-0.5527344,0.4477539-1,1-1     c0.5195312,0,0.9467773,0.3964844,0.9956055,0.9033203c0.5292969,0.6875,4.5463867,1.8652344,11.0043945,1.8652344     s10.4750977-1.1777344,11.0043945-1.8652344C66.0532227,54.5917969,66.4804688,54.1953125,67,54.1953125     c0.5522461,0,1,0.4472656,1,1C68,58.8583984,56.3305664,58.9638672,55,58.9638672z M44,55.1953125h0.0097656H44z"></path></g><g><path d="M55,68c-1.3305664,0-13-0.1054688-13-3.7685547v-27.109375c0-0.5527344,0.4477539-1,1-1s1,0.4472656,1,1V64.140625     C44.5478516,64.8291016,48.5600586,66,55,66s10.4521484-1.1708984,11-1.859375V37.1220703c0-0.5527344,0.4477539-1,1-1     s1,0.4472656,1,1v27.109375C68,67.8945312,56.3305664,68,55,68z"></path></g></g><g><path d="M57.2592773,30.1689453c-0.5522461,0-1-0.4472656-1-1V13.8496094H36.9750977c-0.5522461,0-1-0.4472656-1-1    s0.4477539-1,1-1h20.2841797c0.5522461,0,1,0.4472656,1,1v16.3193359    C58.2592773,29.7216797,57.8115234,30.1689453,57.2592773,30.1689453z"></path></g><g><path d="M57.2592773,30.1689453c-0.2553711,0-0.5112305-0.0976562-0.7060547-0.2919922l-4-3.9902344    c-0.3911133-0.3896484-0.3920898-1.0234375-0.0019531-1.4140625c0.3896484-0.3925781,1.0234375-0.3925781,1.4140625-0.0019531    l3.2939453,3.2861328l3.2939453-3.2861328c0.3901367-0.3896484,1.0239258-0.3896484,1.4140625,0.0019531    c0.3901367,0.390625,0.3891602,1.0244141-0.0019531,1.4140625l-4,3.9902344    C57.7705078,30.0712891,57.5146484,30.1689453,57.2592773,30.1689453z"></path></g><g><path d="M43,57.25H19.9897461c-0.5522461,0-1-0.4472656-1-1V44.1103516c0-0.5527344,0.4477539-1,1-1s1,0.4472656,1,1V55.25H43    c0.5522461,0,1,0.4472656,1,1S43.5522461,57.25,43,57.25z"></path></g><g><path d="M23.9873047,49.0996094c-0.2553711,0-0.5112305-0.0976562-0.7060547-0.2919922l-3.2939453-3.2861328l-3.2939453,3.2861328    c-0.3901367,0.3896484-1.0239258,0.3896484-1.4140625-0.0019531c-0.3901367-0.390625-0.3891602-1.0244141,0.0019531-1.4140625    l4-3.9902344c0.3896484-0.3886719,1.0224609-0.3886719,1.4121094,0l4,3.9902344    c0.3911133,0.3896484,0.3920898,1.0234375,0.0019531,1.4140625C24.5,49.0019531,24.2436523,49.0996094,23.9873047,49.0996094z"></path></g><g><path d="M29.4067383,39.8486328H10.5683594c-0.5522461,0-1-0.4472656-1-1c0-3.1083984,2.6396484-6.5859375,6.1723633-6.5859375    h0.996582v-5.3359375c0-0.5527344,0.4477539-1,1-1h4.5c0.5522461,0,1,0.4472656,1,1v5.3359375h0.9970703    c3.5327148,0,6.1723633,3.4775391,6.1723633,6.5859375C30.4067383,39.4013672,29.9589844,39.8486328,29.4067383,39.8486328z     M11.7006836,37.8486328h16.5737305c-0.4638672-1.8037109-2.0922852-3.5859375-4.0400391-3.5859375h-1.9970703    c-0.5522461,0-1-0.4472656-1-1v-5.3359375h-2.5v5.3359375c0,0.5527344-0.4477539,1-1,1h-1.996582    C13.7929688,34.2626953,12.1645508,36.0449219,11.7006836,37.8486328z"></path></g></g></svg>